<svg xmlns="http://www.w3.org/2000/svg" viewBox="0 0 512 512">
  <!-- Definitions for smooth effects -->
  <defs>
    <linearGradient id="bgGradient" x1="0%" y1="0%" x2="100%" y2="100%">
      <stop offset="0%" style="stop-color:#ffffff"/>
      <stop offset="100%" style="stop-color:#f8fafc"/>
    </linearGradient>
  </defs>

  <!-- Rounded Rectangle Background -->
  <rect x="0" y="0" width="512" height="512" rx="100" ry="100" fill="url(#bgGradient)"/>
  
  <!-- Larger Base Circles -->
  <circle cx="256" cy="256" r="210" fill="#15803d"/>
  <circle cx="256" cy="256" r="190" fill="#22c55e"/>
  
  <!-- Adjusted Book Size -->
  <path d="M140 196 L256 166 L372 196 L372 346 L256 376 L140 346 Z" fill="#f8fafc"/>
  <path d="M140 196 L256 166 L256 376 L140 346 Z" fill="#e2e8f0"/>
  
  <!-- Adjusted Arabic Calligraphy Lines (Right) -->
  <path d="M270 236 L358 221 M270 276 L358 261 M270 316 L358 301" 
        stroke="#15803d" 
        stroke-width="16" 
        stroke-linecap="round"/>
        
  <!-- Adjusted Arabic Calligraphy Lines (Left) -->
  <path d="M154 236 L242 221 M154 276 L242 261 M154 316 L242 301" 
        stroke="#15803d" 
        stroke-width="16" 
        stroke-linecap="round"/>
        
  <!-- Verification Checkmark -->
  <circle cx="256" cy="346" r="35" fill="#15803d"/>
  <path d="M240 346 L252 358 L272 338" 
        stroke="white" 
        stroke-width="8" 
        stroke-linecap="round" 
        stroke-linejoin="round" 
        fill="none"/>
</svg>
